<?xml version="1.0" standalone="no"?>
<!DOCTYPE svg PUBLIC "-//W3C//DTD SVG 1.0//EN" "http://www.w3.org/TR/2001/REC-SVG-20010904/DTD/svg10.dtd">
<svg xmlns="http://www.w3.org/2000/svg" xmlns:xlink="http://www.w3.org/1999/xlink" id="body_1" width="20" height="20">

<g transform="matrix(1 0 0 1 0 0)">
	<g>
        <path d="M19.039062 0.015625C 18.972656 0.0234375 18.605469 0.0625 18.21875 0.101562C 17.832031 0.140625 17.234375 0.199219 16.890625 0.234375C 16.542969 0.269531 15.554688 0.367188 14.695312 0.453125C 13.835938 0.539062 12.863281 0.636719 12.535156 0.671875C 12.207031 0.703125 11.9375 0.734375 11.933594 0.734375C 11.925781 0.746094 12.074219 2.167969 12.085938 2.179688C 12.09375 2.1875 12.28125 2.171875 12.503906 2.148438C 12.726562 2.128906 13.714844 2.027344 14.703125 1.929688C 15.6875 1.832031 16.667969 1.734375 16.878906 1.710938C 17.09375 1.691406 17.265625 1.675781 17.269531 1.675781C 17.273438 1.679688 16.800781 2.15625 16.222656 2.738281C 13.171875 5.8125 12.390625 6.59375 12.378906 6.59375C 12.371094 6.59375 12.28125 6.53125 12.179688 6.457031C 11.21875 5.734375 10.089844 5.246094 8.882812 5.03125C 8.171875 4.90625 7.332031 4.890625 6.617188 4.984375C 4.941406 5.210938 3.390625 5.96875 2.226562 7.132812C 1.457031 7.902344 0.890625 8.773438 0.496094 9.804688C 0.113281 10.800781 -0.0507812 11.886719 0.015625 12.914062C 0.171875 15.277344 1.433594 17.453125 3.378906 18.722656C 3.664062 18.910156 3.796875 18.988281 4.082031 19.132812C 5.605469 19.917969 7.296875 20.175781 8.941406 19.875C 10.171875 19.648438 11.382812 19.101562 12.34375 18.335938C 12.828125 17.949219 13.230469 17.542969 13.601562 17.0625C 14.457031 15.953125 14.980469 14.65625 15.144531 13.234375C 15.179688 12.9375 15.191406 12.25 15.167969 11.960938C 15.085938 10.914062 14.828125 9.984375 14.367188 9.070312C 14.167969 8.671875 13.847656 8.164062 13.578125 7.820312L13.578125 7.820312L13.429688 7.636719L13.679688 7.386719C 13.820312 7.246094 14.214844 6.847656 14.5625 6.5C 15.222656 5.835938 17.628906 3.414062 18.074219 2.964844C 18.21875 2.820312 18.335938 2.703125 18.335938 2.707031C 18.339844 2.710938 18.332031 2.804688 18.320312 2.921875C 18.308594 3.039062 18.285156 3.292969 18.269531 3.492188C 18.25 3.6875 18.21875 4.011719 18.203125 4.207031C 18.1875 4.402344 18.15625 4.722656 18.140625 4.917969C 18.035156 6.074219 17.886719 7.753906 17.886719 7.8125L17.886719 7.8125L17.878906 7.882812L18.613281 7.945312C 19.015625 7.980469 19.34375 8.007812 19.347656 8.007812C 19.347656 8.007812 19.386719 7.601562 19.429688 7.109375C 19.472656 6.617188 19.523438 6.054688 19.539062 5.867188C 19.558594 5.679688 19.59375 5.28125 19.621094 4.984375C 19.644531 4.6875 19.675781 4.371094 19.683594 4.28125C 19.691406 4.191406 19.71875 3.875 19.746094 3.578125C 19.773438 3.28125 19.796875 2.964844 19.808594 2.875C 19.816406 2.785156 19.847656 2.46875 19.871094 2.171875C 19.898438 1.875 19.9375 1.441406 19.957031 1.207031C 19.988281 0.890625 19.996094 0.679688 19.996094 0.390625L19.996094 0.390625L19.996094 0L19.578125 0C 19.34375 0.00390625 19.101562 0.0078125 19.039062 0.015625zM8.292969 6.429688C 9.320312 6.570312 10.203125 6.894531 11.003906 7.425781C 12.339844 8.3125 13.261719 9.695312 13.585938 11.289062C 13.675781 11.738281 13.695312 11.949219 13.695312 12.46875C 13.695312 12.957031 13.679688 13.136719 13.601562 13.554688C 13.316406 15.089844 12.414062 16.503906 11.167969 17.378906C 10.378906 17.929688 9.503906 18.289062 8.574219 18.445312C 8.195312 18.507812 8.019531 18.523438 7.589844 18.523438C 6.980469 18.523438 6.53125 18.460938 5.945312 18.296875C 3.5 17.609375 1.789062 15.578125 1.507812 13.03125C 1.464844 12.636719 1.484375 11.996094 1.550781 11.5625C 1.808594 9.921875 2.71875 8.445312 4.042969 7.523438C 4.976562 6.871094 6 6.503906 7.175781 6.398438C 7.339844 6.386719 8.117188 6.40625 8.292969 6.429688z" stroke="none" fill="#2196F3" fill-rule="nonzero" />
	</g>
</g>
</svg>